<svg width="512" height="512" viewBox="0 0 512 512" fill="none" xmlns="http://www.w3.org/2000/svg">
  <rect width="512" height="512" rx="100" fill="#0a0a0a"/>
  <rect x="40" y="40" width="432" height="432" rx="80" fill="url(#gradient)"/>

  <!-- Car body -->
  <rect x="176" y="186" width="160" height="220" rx="20" fill="#ff1744"/>
  <rect x="188" y="200" width="136" height="70" rx="16" fill="#64b5f6"/>

  <!-- Wheels -->
  <circle cx="200" cy="240" r="22" fill="#212121"/>
  <circle cx="312" cy="240" r="22" fill="#212121"/>
  <circle cx="200" cy="380" r="22" fill="#212121"/>
  <circle cx="312" cy="380" r="22" fill="#212121"/>

  <!-- Headlights -->
  <rect x="188" y="390" width="40" height="12" rx="6" fill="#ffeb3b"/>
  <rect x="284" y="390" width="40" height="12" rx="6" fill="#ffeb3b"/>

  <!-- Road lines -->
  <rect x="100" y="80" width="20" height="80" rx="8" fill="#ffeb3b" opacity="0.6"/>
  <rect x="392" y="80" width="20" height="80" rx="8" fill="#ffeb3b" opacity="0.6"/>
  <rect x="100" y="352" width="20" height="80" rx="8" fill="#ffeb3b" opacity="0.6"/>
  <rect x="392" y="352" width="20" height="80" rx="8" fill="#ffeb3b" opacity="0.6"/>

  <!-- Title -->
  <text x="256" y="460" font-family="Arial, sans-serif" font-size="48" font-weight="bold" fill="#ffeb3b" text-anchor="middle">TURBO</text>

  <defs>
    <linearGradient id="gradient" x1="256" y1="40" x2="256" y2="472" gradientUnits="userSpaceOnUse">
      <stop stop-color="#2c2c2c"/>
      <stop offset="1" stop-color="#1a1a1a"/>
    </linearGradient>
  </defs>
</svg>
